<svg xmlns="http://www.w3.org/2000/svg" viewBox="0 0 96 16"><title>cppfs-logo</title><polygon points="1.684 14.358 16.341 14.358 15.12 12.243 5.348 12.243 10.232 3.78 9.011 1.665 1.684 14.358" style="fill:#46698d"/><path d="M18.78,1.6647l7.321,12.6934,1.2358-2.1156L26.1158,10.127,29.78,3.78,28.5581,1.6647ZM27.3367,3.78l-2.4537,4.23L22.4446,3.78Z" style="fill:#46698d"/><polygon points="11.455 1.665 16.341 1.665 17.562 3.78 15.119 3.78 17.558 8.011 18.787 5.896 20.009 8.011 18.79 10.127 20.012 12.243 18.776 14.358 11.455 1.665" style="fill:#46698d"/><path d="M32.8147,6.344h-.9755V5.0726l.9755-.0743V4.2444c0-1.5088.6949-2.6025,2.41-2.6025a3.6793,3.6793,0,0,1,1.3306.251L36.23,3.1653a1.9906,1.9906,0,0,0-.7984-.1777c-.5913,0-.9165.3838-.9165,1.2266v.7841h1.419V6.344h-1.419v5.9141H32.8147Z" style="fill:#46698d"/><path d="M36.3924,11.43l.7983-1.0938a3.2274,3.2274,0,0,0,2.0108.8125c.7837,0,1.1533-.3691,1.1533-.872,0-.6065-.7837-.8721-1.5523-1.168-.9614-.3545-2.0405-.9024-2.0405-2.1143,0-1.2715,1.02-2.1738,2.6465-2.1738a3.9168,3.9168,0,0,1,2.41.873L41.035,6.7278a2.707,2.707,0,0,0-1.5967-.6211c-.7246,0-1.065.3409-1.065.7989,0,.5771.7246.7988,1.5083,1.0791.9908.37,2.085.8427,2.085,2.2031,0,1.2422-.9907,2.248-2.8242,2.248A4.5942,4.5942,0,0,1,36.3924,11.43Z" style="fill:#46698d"/></svg>